<svg width="57" height="57" viewBox="0 0 57 57" fill="none" xmlns="http://www.w3.org/2000/svg">
<rect width="56.4813" height="56.4813" rx="28.2406" fill="#141414" fill-opacity="0.7"/>
<path d="M36.1156 20.3781C35.6281 19.8906 34.8406 19.8906 34.3531 20.3781L28.2406 26.4781L22.1281 20.3656C21.6406 19.8781 20.8531 19.8781 20.3656 20.3656C19.8781 20.8531 19.8781 21.6406 20.3656 22.1281L26.4781 28.2406L20.3656 34.3531C19.8781 34.8406 19.8781 35.6281 20.3656 36.1156C20.8531 36.6031 21.6406 36.6031 22.1281 36.1156L28.2406 30.0031L34.3531 36.1156C34.8406 36.6031 35.6281 36.6031 36.1156 36.1156C36.6031 35.6281 36.6031 34.8406 36.1156 34.3531L30.0031 28.2406L36.1156 22.1281C36.5906 21.6531 36.5906 20.8531 36.1156 20.3781Z" fill="white"/>
</svg>
